<svg width="60" height="50" viewBox="0 0 60 50" fill="none" xmlns="http://www.w3.org/2000/svg">
<path d="M13.5 14.2857C13.5 17.6527 11.2466 19.9286 9 19.9286C6.75344 19.9286 4.5 17.6527 4.5 14.2857C4.5 10.9188 6.75344 8.64286 9 8.64286C11.2466 8.64286 13.5 10.9188 13.5 14.2857ZM55.5 14.2857C55.5 17.6527 53.2466 19.9286 51 19.9286C48.7534 19.9286 46.5 17.6527 46.5 14.2857C46.5 10.9188 48.7534 8.64286 51 8.64286C53.2466 8.64286 55.5 10.9188 55.5 14.2857ZM52.1127 37.7857C51.3396 33.3996 49.1975 29.5836 46.1627 26.996C46.7367 26.6705 47.3604 26.5 48 26.5H54C56.2466 26.5 58.5 28.7759 58.5 32.1429V35.7143C58.5 37.117 57.5966 37.7857 57 37.7857H52.1127ZM39 12.5C39 18.8357 34.7403 23.5 30 23.5C25.2597 23.5 21 18.8357 21 12.5C21 6.16429 25.2597 1.5 30 1.5C34.7403 1.5 39 6.16429 39 12.5ZM30 31.8571C32.4614 31.8571 34.7577 31.1805 36.8107 30.0714H37.2C42.0997 30.0714 46.5 34.9031 46.5 41.4286V44.6429C46.5 47.0277 44.9216 48.5 43.5 48.5H16.5C15.0784 48.5 13.5 47.0277 13.5 44.6429V41.4286C13.5 34.9031 17.9003 30.0714 22.8 30.0714H23.1906C25.2484 31.1793 27.5364 31.8571 30 31.8571ZM12 26.5C12.6396 26.5 13.2633 26.6705 13.8373 26.996C10.802 29.5839 8.65928 33.4001 7.87997 37.7857H3C2.40344 37.7857 1.5 37.117 1.5 35.7143V32.1429C1.5 28.7759 3.75344 26.5 6 26.5H12Z" stroke="white" stroke-opacity="0.898039" stroke-width="3"/>
</svg>
