<svg width="60" height="50" viewBox="0 0 60 50" fill="none" xmlns="http://www.w3.org/2000/svg">
<path d="M35.9968 48.1768V48.1739V37.4986C35.9968 36.7812 35.7315 36.0804 35.2398 35.5535C34.7459 35.0243 34.0606 34.7127 33.3302 34.7127H26.6641C25.9337 34.7127 25.2484 35.0243 24.7545 35.5535C24.2628 36.0804 23.9975 36.7812 23.9975 37.4986V48.1817C23.9976 48.4109 23.9123 48.6181 23.7796 48.761C23.6493 48.9012 23.4879 48.9665 23.3352 48.9676C23.3348 48.9676 23.3344 48.9676 23.334 48.9676L11.6673 49C11.667 49 11.6666 49 11.6663 49C11.513 48.9997 11.3509 48.9349 11.22 48.7947C11.0867 48.6517 11.0008 48.444 11.0008 48.2141V30.3719L29.8609 13.7258C29.9098 13.6845 29.9597 13.67 30.0013 13.67C30.043 13.67 30.0929 13.6845 30.1418 13.7258C30.1427 13.7266 30.1436 13.7273 30.1445 13.7281L48.9977 30.3598V48.2141C48.9977 48.444 48.9118 48.6518 48.7785 48.7947C48.6476 48.9349 48.4856 48.9997 48.3324 49C48.332 49 48.3316 49 48.3312 49L36.6663 48.9654H36.6633C36.5856 48.9654 36.5068 48.9491 36.4308 48.9153C36.3546 48.8813 36.2807 48.8296 36.2152 48.7592C36.1497 48.6888 36.0944 48.6014 36.0557 48.5006C36.0169 48.3997 35.9964 48.2895 35.9968 48.1768ZM58.8766 25.2411L58.8817 25.2455C58.909 25.2693 58.9357 25.3022 58.957 25.3447C58.9784 25.3873 58.9931 25.4368 58.9981 25.4903L59.9937 25.397L58.9981 25.4903C59.0031 25.5438 58.9981 25.5973 58.9841 25.647C58.9701 25.6965 58.9482 25.7388 58.9225 25.7724C58.9224 25.7724 58.9224 25.7724 58.9224 25.7725C58.9223 25.7725 58.9223 25.7726 58.9222 25.7727L56.2678 29.2308C56.2676 29.2311 56.2673 29.2314 56.2671 29.2318C56.2416 29.2645 56.2138 29.2873 56.1877 29.3021C56.1615 29.317 56.1362 29.3244 56.1131 29.3267C56.0901 29.3291 56.0662 29.3267 56.0418 29.3187C56.0172 29.3106 55.9899 29.2959 55.9629 29.2719L55.9611 29.2704L31.4599 7.64517L31.4599 7.64513L31.4518 7.63814C31.0502 7.29122 30.5387 7.09362 30.0013 7.09362C29.4639 7.09362 28.9525 7.29122 28.5508 7.63814L28.5508 7.6381L28.5428 7.64518L4.04257 29.2704L4.04155 29.2713C4.01445 29.2953 3.98716 29.3099 3.96255 29.3179C3.93812 29.326 3.91422 29.3283 3.89119 29.3259C3.86811 29.3235 3.84277 29.3161 3.81652 29.3011C3.79007 29.286 3.76196 29.2628 3.73631 29.2293L3.73625 29.2293L1.08021 25.769L1.07844 25.7668C1.05268 25.7334 1.03061 25.6913 1.01643 25.6419C1.00224 25.5925 0.996968 25.5391 1.00168 25.4858C1.0064 25.4324 1.02075 25.3828 1.04187 25.3401C1.06289 25.2976 1.08927 25.2645 1.11643 25.2404C1.1165 25.2403 1.11658 25.2402 1.11666 25.2402L27.4807 1.97226C27.4808 1.97221 27.4808 1.97215 27.4809 1.97209C28.199 1.3389 29.0886 1.00158 29.9961 1.00158C30.9038 1.00158 31.7934 1.33896 32.5116 1.97226L32.5116 1.97233L41.8369 10.1942L43.4983 11.659V9.44413V1.33944C43.4983 1.22794 43.5403 1.13375 43.5955 1.07457C43.6485 1.0177 43.7051 1 43.7482 1H49.5811C49.6241 1 49.6807 1.01771 49.7338 1.07456C49.789 1.13376 49.831 1.22795 49.831 1.33944V16.7999V17.2508L50.1689 17.5493L58.8766 25.2411Z" stroke="#FFB803" stroke-opacity="0.898039" stroke-width="2"/>
</svg>
