<svg width="60" height="50" viewBox="0 0 60 50" fill="none" xmlns="http://www.w3.org/2000/svg">
<path d="M58.6379 11.582L52.3157 1.46484C51.7507 0.556641 50.7473 0 49.6758 0H10.3204C9.24887 0 8.2455 0.556641 7.6805 1.46484L1.35832 11.582C-1.90506 16.8066 0.988142 24.0723 7.08627 24.9023C7.52464 24.9609 7.97274 24.9902 8.42085 24.9902C11.3043 24.9902 13.8566 23.7207 15.61 21.7578C17.3635 23.7207 19.9255 24.9902 22.7992 24.9902C25.6826 24.9902 28.2349 23.7207 29.9884 21.7578C31.7418 23.7207 34.3038 24.9902 37.1775 24.9902C40.061 24.9902 42.6132 23.7207 44.3667 21.7578C46.1299 23.7207 48.6821 24.9902 51.5559 24.9902C52.0137 24.9902 52.4521 24.9609 52.8904 24.9023C59.008 24.082 61.911 16.8164 58.6379 11.582ZM51.5753 28.125C50.6012 28.125 49.6368 27.9785 48.7016 27.7539V37.5H11.2946V27.7539C10.3594 27.9688 9.39499 28.125 8.42085 28.125C7.83636 28.125 7.24213 28.0859 6.66739 28.0078C6.12187 27.9297 5.58609 27.8027 5.0698 27.6562V46.875C5.0698 48.6035 6.46282 50 8.18705 50H51.8286C53.5529 50 54.9459 48.6035 54.9459 46.875V27.6562C54.4198 27.8125 53.8938 27.9395 53.3483 28.0078C52.7541 28.0859 52.1696 28.125 51.5753 28.125Z" fill="black"/>
<path d="M49.7016 38.5H48.7016H11.2946H10.2946V37.5V28.9684C9.68674 29.0644 9.05953 29.125 8.42085 29.125C7.79278 29.125 7.15352 29.0831 6.5327 28.9987L6.52562 28.9977L6.52562 28.9977C6.37218 28.9757 6.22015 28.9504 6.0698 28.9222V46.875C6.0698 48.0536 7.01744 49 8.18705 49H51.8286C52.9982 49 53.9459 48.0536 53.9459 46.875V28.9276C53.7915 28.9554 53.6349 28.9796 53.476 28.9996M49.7016 38.5L53.3483 28.0078M49.7016 38.5V37.5V28.9726M49.7016 38.5V28.9726M53.476 28.9996C53.4749 28.9998 53.4737 28.9999 53.4726 29L53.3483 28.0078M53.476 28.9996C53.4769 28.9995 53.4778 28.9994 53.4786 28.9993L53.3483 28.0078M53.476 28.9996C52.8406 29.0831 52.2134 29.125 51.5753 29.125C50.939 29.125 50.3125 29.0683 49.7016 28.9726M53.3483 28.0078C52.7541 28.0859 52.1696 28.125 51.5753 28.125C50.9449 28.125 50.3186 28.0637 49.7016 27.9595V28.9726M57.7898 12.112L57.79 12.1122C60.7326 16.818 58.055 23.2006 52.7579 23.9112C52.3641 23.9638 51.97 23.9902 51.5559 23.9902C48.9853 23.9902 46.6975 22.8561 45.1106 21.0896L44.3646 20.2591L43.6209 21.0916C42.0453 22.8554 39.7588 23.9902 37.1775 23.9902C34.6054 23.9902 32.3094 22.855 30.7341 21.0916L29.9884 20.2568L29.2426 21.0916C27.667 22.8554 25.3805 23.9902 22.7992 23.9902C20.2271 23.9902 17.931 22.855 16.3558 21.0916L15.61 20.2568L14.8642 21.0916C13.2886 22.8554 11.0021 23.9902 8.42085 23.9902C8.01639 23.9902 7.61298 23.9638 7.21997 23.9113C1.9425 23.1921 -0.727593 16.8092 2.20646 12.1118L8.52854 1.99478L8.5296 1.99308C8.91161 1.37901 9.59351 1 10.3204 1H49.6758C50.4027 1 51.0846 1.37901 51.4666 1.99308L51.4677 1.99478L57.7898 12.112ZM58.6379 11.582L52.3157 1.46484L52.8904 24.9023C59.008 24.082 61.911 16.8164 58.6379 11.582ZM54.9459 27.6562C54.6142 27.7548 54.2825 27.8417 53.9459 27.9095L54.9459 28.6966V27.6562Z" stroke="white" stroke-opacity="0.898039" stroke-width="2"/>
</svg>
