<svg width="60" height="50" viewBox="0 0 60 50" fill="none" xmlns="http://www.w3.org/2000/svg">
<path d="M14.3333 13.5H45.6667V36.5H14.3333V13.5ZM54 25C54 28.414 56.0261 31.5686 59 32.1534V43.75C59 46.8693 57.0125 49 55 49H5C2.98753 49 1 46.8693 1 43.75V32.1534C3.97391 31.5686 6 28.414 6 25C6 21.586 3.97391 18.4314 1 17.8466V6.25C1 3.1307 2.98752 1 5 1H55C57.0125 1 59 3.1307 59 6.25V17.8466C56.0261 18.4314 54 21.586 54 25ZM51 11.4583C51 9.3999 49.6297 7.33333 47.5 7.33333H12.5C10.3703 7.33333 9 9.3999 9 11.4583V38.5417C9 40.6001 10.3703 42.6667 12.5 42.6667H47.5C49.6297 42.6667 51 40.6001 51 38.5417V11.4583Z" stroke="white" stroke-opacity="0.898039" stroke-width="2"/>
</svg>
